<mxfile host="app.diagrams.net" modified="2023-06-27T13:51:18.814Z" agent="Mozilla/5.0 (X11; CrOS x86_64 15183.90.16) AppleWebKit/537.36 (KHTML, like Gecko) Chrome/108.0.0.0 Safari/537.36" etag="OGPWhix8zoSaJEhvoKjx" version="21.5.1" type="github">
  <diagram name="Page-1" id="6zT5sOJIbMIqsgZZc4oi">
    <mxGraphModel dx="1366" dy="788" grid="1" gridSize="10" guides="1" tooltips="1" connect="1" arrows="1" fold="1" page="1" pageScale="1" pageWidth="1920" pageHeight="1200" math="0" shadow="0">
      <root>
        <mxCell id="0" />
        <mxCell id="1" parent="0" />
        <mxCell id="hdLLT1XwDSxE3HL0Fr2b-21" value="" style="endArrow=none;html=1;rounded=0;align=center;" parent="1" edge="1">
          <mxGeometry width="50" height="50" relative="1" as="geometry">
            <mxPoint x="960" y="1190" as="sourcePoint" />
            <mxPoint x="960" as="targetPoint" />
          </mxGeometry>
        </mxCell>
        <mxCell id="uisLEEsgdXvzJO_oflQc-1" value="Assemblr Editor" style="swimlane;whiteSpace=wrap;html=1;startSize=20;" vertex="1" parent="1">
          <mxGeometry x="960" width="980" height="1200" as="geometry" />
        </mxCell>
        <mxCell id="uisLEEsgdXvzJO_oflQc-2" value="&lt;div style=&quot;&quot;&gt;&lt;br&gt;&lt;/div&gt;" style="rounded=0;whiteSpace=wrap;html=1;align=left;" vertex="1" parent="uisLEEsgdXvzJO_oflQc-1">
          <mxGeometry y="20" width="960" height="20" as="geometry" />
        </mxCell>
        <mxCell id="uisLEEsgdXvzJO_oflQc-3" value="&lt;u&gt;F&lt;/u&gt;ile" style="rounded=0;whiteSpace=wrap;html=1;" vertex="1" parent="uisLEEsgdXvzJO_oflQc-1">
          <mxGeometry y="20" width="80" height="20" as="geometry" />
        </mxCell>
        <mxCell id="uisLEEsgdXvzJO_oflQc-4" value="Edit" style="rounded=0;whiteSpace=wrap;html=1;" vertex="1" parent="uisLEEsgdXvzJO_oflQc-1">
          <mxGeometry x="80" y="20" width="80" height="20" as="geometry" />
        </mxCell>
        <mxCell id="uisLEEsgdXvzJO_oflQc-5" value="&lt;u&gt;R&lt;/u&gt;un" style="rounded=0;whiteSpace=wrap;html=1;" vertex="1" parent="uisLEEsgdXvzJO_oflQc-1">
          <mxGeometry x="160" y="20" width="80" height="20" as="geometry" />
        </mxCell>
        <mxCell id="uisLEEsgdXvzJO_oflQc-6" value="&lt;u&gt;H&lt;/u&gt;elp" style="rounded=0;whiteSpace=wrap;html=1;" vertex="1" parent="uisLEEsgdXvzJO_oflQc-1">
          <mxGeometry x="240" y="20" width="80" height="20" as="geometry" />
        </mxCell>
        <mxCell id="uisLEEsgdXvzJO_oflQc-9" value="" style="rounded=0;whiteSpace=wrap;html=1;align=left;" vertex="1" parent="uisLEEsgdXvzJO_oflQc-1">
          <mxGeometry x="20" y="40" width="940" height="440" as="geometry" />
        </mxCell>
        <mxCell id="uisLEEsgdXvzJO_oflQc-8" value="&lt;font face=&quot;Courier New&quot;&gt;00&lt;br&gt;01&lt;br&gt;02&lt;br&gt;03&lt;br&gt;04&lt;br&gt;05&lt;br&gt;06&lt;br&gt;07&lt;br&gt;08&lt;br&gt;09&lt;br&gt;10&lt;br&gt;11&lt;br&gt;12&lt;br&gt;13&lt;br&gt;14&lt;br&gt;15&lt;br&gt;16&lt;br&gt;17&lt;br&gt;18&lt;br&gt;19&lt;br&gt;20&lt;br&gt;21&lt;br&gt;22&lt;br&gt;23&lt;br&gt;24&lt;br&gt;25&lt;br&gt;26&lt;br&gt;27&lt;br&gt;28&lt;br&gt;29&lt;/font&gt;" style="rounded=0;whiteSpace=wrap;html=1;" vertex="1" parent="uisLEEsgdXvzJO_oflQc-1">
          <mxGeometry y="40" width="20" height="440" as="geometry" />
        </mxCell>
      </root>
    </mxGraphModel>
  </diagram>
</mxfile>
